{
 "cells": [
  {
   "cell_type": "markdown",
   "id": "045d93f5",
   "metadata": {},
   "source": [
    "### noise reduction using deepfilternet"
   ]
  },
  {
   "cell_type": "code",
   "execution_count": null,
   "id": "550e66da",
   "metadata": {},
   "outputs": [],
   "source": [
    "from df.enhance import enhance, init_df, load_audio, save_audio\n",
    "from df.utils import download_file\n",
    "\n",
    "if __name__ == \"__main__\":\n",
    "    # Load default model\n",
    "    model, df_state, _ = init_df()\n",
    "    # Download and open some audio file. You use your audio files here\n",
    "    # audio_path = download_file(\n",
    "    #     \"https://github.com/Rikorose/DeepFilterNet/raw/e031053/assets/noisy_snr0.wav\",\n",
    "    #     download_dir=\".\",\n",
    "    # )\n",
    "    audio_path = 'audio1.wav'\n",
    "    audio, _ = load_audio(audio_path, sr=df_state.sr())\n",
    "    # Denoise the audio\n",
    "    enhanced = enhance(model, df_state, audio)\n",
    "    # Save for listening\n",
    "    save_audio(\"deepfilternet_output/audio1.wav\", enhanced, df_state.sr())"
   ]
  },
  {
   "cell_type": "markdown",
   "id": "8b2a4247",
   "metadata": {},
   "source": [
    "### normalization/DRC"
   ]
  },
  {
   "cell_type": "code",
   "execution_count": 3,
   "metadata": {},
   "outputs": [
    {
     "name": "stdout",
     "output_type": "stream",
     "text": [
      "Processing: input2.wav\n"
     ]
    },
    {
     "name": "stderr",
     "output_type": "stream",
     "text": [
      "ffmpeg version 6.1.1-3ubuntu5 Copyright (c) 2000-2023 the FFmpeg developers\n",
      "  built with gcc 13 (Ubuntu 13.2.0-23ubuntu3)\n",
      "  configuration: --prefix=/usr --extra-version=3ubuntu5 --toolchain=hardened --libdir=/usr/lib/x86_64-linux-gnu --incdir=/usr/include/x86_64-linux-gnu --arch=amd64 --enable-gpl --disable-stripping --disable-omx --enable-gnutls --enable-libaom --enable-libass --enable-libbs2b --enable-libcaca --enable-libcdio --enable-libcodec2 --enable-libdav1d --enable-libflite --enable-libfontconfig --enable-libfreetype --enable-libfribidi --enable-libglslang --enable-libgme --enable-libgsm --enable-libharfbuzz --enable-libmp3lame --enable-libmysofa --enable-libopenjpeg --enable-libopenmpt --enable-libopus --enable-librubberband --enable-libshine --enable-libsnappy --enable-libsoxr --enable-libspeex --enable-libtheora --enable-libtwolame --enable-libvidstab --enable-libvorbis --enable-libvpx --enable-libwebp --enable-libx265 --enable-libxml2 --enable-libxvid --enable-libzimg --enable-openal --enable-opencl --enable-opengl --disable-sndio --enable-libvpl --disable-libmfx --enable-libdc1394 --enable-libdrm --enable-libiec61883 --enable-chromaprint --enable-frei0r --enable-ladspa --enable-libbluray --enable-libjack --enable-libpulse --enable-librabbitmq --enable-librist --enable-libsrt --enable-libssh --enable-libsvtav1 --enable-libx264 --enable-libzmq --enable-libzvbi --enable-lv2 --enable-sdl2 --enable-libplacebo --enable-librav1e --enable-pocketsphinx --enable-librsvg --enable-libjxl --enable-shared\n",
      "  libavutil      58. 29.100 / 58. 29.100\n",
      "  libavcodec     60. 31.102 / 60. 31.102\n",
      "  libavformat    60. 16.100 / 60. 16.100\n",
      "  libavdevice    60.  3.100 / 60.  3.100\n",
      "  libavfilter     9. 12.100 /  9. 12.100\n",
      "  libswscale      7.  5.100 /  7.  5.100\n",
      "  libswresample   4. 12.100 /  4. 12.100\n",
      "  libpostproc    57.  3.100 / 57.  3.100\n",
      "[aist#0:0/pcm_s16le @ 0x5637b1558480] Guessed Channel Layout: stereo\n",
      "Input #0, wav, from 'deepfilternet_output/input2.wav':\n",
      "  Metadata:\n",
      "    encoder         : Lavf60.16.100\n",
      "  Duration: 00:00:28.03, bitrate: 1536 kb/s\n",
      "  Stream #0:0: Audio: pcm_s16le ([1][0][0][0] / 0x0001), 48000 Hz, 2 channels, s16, 1536 kb/s\n",
      "Stream mapping:\n",
      "  Stream #0:0 -> #0:0 (pcm_s16le (native) -> pcm_s16le (native))\n",
      "Press [q] to stop, [?] for help\n",
      "Output #0, wav, to 'output/temp_input2.wav':\n",
      "  Metadata:\n",
      "    ISFT            : Lavf60.16.100\n",
      "  Stream #0:0: Audio: pcm_s16le ([1][0][0][0] / 0x0001), 48000 Hz, stereo, s16, 1536 kb/s\n",
      "    Metadata:\n",
      "      encoder         : Lavc60.31.102 pcm_s16le\n",
      "[out#0/wav @ 0x5637b1531a80] video:0kB audio:5255kB subtitle:0kB other streams:0kB global headers:0kB muxing overhead: 0.001450%\n",
      "size=    5255kB time=00:00:28.01 bitrate=1536.9kbits/s speed= 111x    \n",
      "ffmpeg version 6.1.1-3ubuntu5 Copyright (c) 2000-2023 the FFmpeg developers\n",
      "  built with gcc 13 (Ubuntu 13.2.0-23ubuntu3)\n",
      "  configuration: --prefix=/usr --extra-version=3ubuntu5 --toolchain=hardened --libdir=/usr/lib/x86_64-linux-gnu --incdir=/usr/include/x86_64-linux-gnu --arch=amd64 --enable-gpl --disable-stripping --disable-omx --enable-gnutls --enable-libaom --enable-libass --enable-libbs2b --enable-libcaca --enable-libcdio --enable-libcodec2 --enable-libdav1d --enable-libflite --enable-libfontconfig --enable-libfreetype --enable-libfribidi --enable-libglslang --enable-libgme --enable-libgsm --enable-libharfbuzz --enable-libmp3lame --enable-libmysofa --enable-libopenjpeg --enable-libopenmpt --enable-libopus --enable-librubberband --enable-libshine --enable-libsnappy --enable-libsoxr --enable-libspeex --enable-libtheora --enable-libtwolame --enable-libvidstab --enable-libvorbis --enable-libvpx --enable-libwebp --enable-libx265 --enable-libxml2 --enable-libxvid --enable-libzimg --enable-openal --enable-opencl --enable-opengl --disable-sndio --enable-libvpl --disable-libmfx --enable-libdc1394 --enable-libdrm --enable-libiec61883 --enable-chromaprint --enable-frei0r --enable-ladspa --enable-libbluray --enable-libjack --enable-libpulse --enable-librabbitmq --enable-librist --enable-libsrt --enable-libssh --enable-libsvtav1 --enable-libx264 --enable-libzmq --enable-libzvbi --enable-lv2 --enable-sdl2 --enable-libplacebo --enable-librav1e --enable-pocketsphinx --enable-librsvg --enable-libjxl --enable-shared\n",
      "  libavutil      58. 29.100 / 58. 29.100\n",
      "  libavcodec     60. 31.102 / 60. 31.102\n",
      "  libavformat    60. 16.100 / 60. 16.100\n",
      "  libavdevice    60.  3.100 / 60.  3.100\n",
      "  libavfilter     9. 12.100 /  9. 12.100\n",
      "  libswscale      7.  5.100 /  7.  5.100\n",
      "  libswresample   4. 12.100 /  4. 12.100\n",
      "  libpostproc    57.  3.100 / 57.  3.100\n",
      "[aist#0:0/pcm_s16le @ 0x55965807f500] Guessed Channel Layout: stereo\n",
      "Input #0, wav, from 'output/temp_input2.wav':\n",
      "  Metadata:\n",
      "    encoder         : Lavf60.16.100\n",
      "  Duration: 00:00:28.03, bitrate: 1536 kb/s\n",
      "  Stream #0:0: Audio: pcm_s16le ([1][0][0][0] / 0x0001), 48000 Hz, 2 channels, s16, 1536 kb/s\n",
      "Stream mapping:\n",
      "  Stream #0:0 -> #0:0 (pcm_s16le (native) -> pcm_s16le (native))\n",
      "Press [q] to stop, [?] for help\n",
      "Output #0, wav, to 'output/input2.wav':\n",
      "  Metadata:\n",
      "    ISFT            : Lavf60.16.100\n",
      "  Stream #0:0: Audio: pcm_s16le ([1][0][0][0] / 0x0001), 192000 Hz, stereo, s16, 6144 kb/s\n",
      "    Metadata:\n",
      "      encoder         : Lavc60.31.102 pcm_s16le\n",
      "[out#0/wav @ 0x559658058b40] video:0kB audio:21020kB subtitle:0kB other streams:0kB global headers:0kB muxing overhead: 0.000474%\n",
      "size=   21020kB time=00:00:25.20 bitrate=6833.2kbits/s speed=  23x    \n",
      "ffmpeg version 6.1.1-3ubuntu5 Copyright (c) 2000-2023 the FFmpeg developers\n",
      "  built with gcc 13 (Ubuntu 13.2.0-23ubuntu3)\n",
      "  configuration: --prefix=/usr --extra-version=3ubuntu5 --toolchain=hardened --libdir=/usr/lib/x86_64-linux-gnu --incdir=/usr/include/x86_64-linux-gnu --arch=amd64 --enable-gpl --disable-stripping --disable-omx --enable-gnutls --enable-libaom --enable-libass --enable-libbs2b --enable-libcaca --enable-libcdio --enable-libcodec2 --enable-libdav1d --enable-libflite --enable-libfontconfig --enable-libfreetype --enable-libfribidi --enable-libglslang --enable-libgme --enable-libgsm --enable-libharfbuzz --enable-libmp3lame --enable-libmysofa --enable-libopenjpeg --enable-libopenmpt --enable-libopus --enable-librubberband --enable-libshine --enable-libsnappy --enable-libsoxr --enable-libspeex --enable-libtheora --enable-libtwolame --enable-libvidstab --enable-libvorbis --enable-libvpx --enable-libwebp --enable-libx265 --enable-libxml2 --enable-libxvid --enable-libzimg --enable-openal --enable-opencl --enable-opengl --disable-sndio --enable-libvpl --disable-libmfx --enable-libdc1394 --enable-libdrm --enable-libiec61883 --enable-chromaprint --enable-frei0r --enable-ladspa --enable-libbluray --enable-libjack --enable-libpulse --enable-librabbitmq --enable-librist --enable-libsrt --enable-libssh --enable-libsvtav1 --enable-libx264 --enable-libzmq --enable-libzvbi --enable-lv2 --enable-sdl2 --enable-libplacebo --enable-librav1e --enable-pocketsphinx --enable-librsvg --enable-libjxl --enable-shared\n",
      "  libavutil      58. 29.100 / 58. 29.100\n",
      "  libavcodec     60. 31.102 / 60. 31.102\n",
      "  libavformat    60. 16.100 / 60. 16.100\n",
      "  libavdevice    60.  3.100 / 60.  3.100\n",
      "  libavfilter     9. 12.100 /  9. 12.100\n",
      "  libswscale      7.  5.100 /  7.  5.100\n",
      "  libswresample   4. 12.100 /  4. 12.100\n",
      "  libpostproc    57.  3.100 / 57.  3.100\n",
      "[aist#0:0/pcm_s16le @ 0x55cd441e0480] Guessed Channel Layout: stereo\n",
      "Input #0, wav, from 'deepfilternet_output/input1.wav':\n",
      "  Metadata:\n",
      "    encoder         : Lavf60.16.100\n",
      "  Duration: 00:00:23.22, bitrate: 1536 kb/s\n",
      "  Stream #0:0: Audio: pcm_s16le ([1][0][0][0] / 0x0001), 48000 Hz, 2 channels, s16, 1536 kb/s\n",
      "Stream mapping:\n",
      "  Stream #0:0 -> #0:0 (pcm_s16le (native) -> pcm_s16le (native))\n",
      "Press [q] to stop, [?] for help\n",
      "Output #0, wav, to 'output/temp_input1.wav':\n",
      "  Metadata:\n",
      "    ISFT            : Lavf60.16.100\n",
      "  Stream #0:0: Audio: pcm_s16le ([1][0][0][0] / 0x0001), 48000 Hz, stereo, s16, 1536 kb/s\n",
      "    Metadata:\n",
      "      encoder         : Lavc60.31.102 pcm_s16le\n",
      "size=       0kB time=00:00:00.00 bitrate=N/A speed=   0x    \r"
     ]
    },
    {
     "name": "stdout",
     "output_type": "stream",
     "text": [
      "Saved to: output/input2.wav\n",
      "Processing: input1.wav\n"
     ]
    },
    {
     "name": "stderr",
     "output_type": "stream",
     "text": [
      "[out#0/wav @ 0x55cd441b9a80] video:0kB audio:4354kB subtitle:0kB other streams:0kB global headers:0kB muxing overhead: 0.001750%\n",
      "size=    4354kB time=00:00:23.21 bitrate=1536.6kbits/s speed= 127x    \n",
      "ffmpeg version 6.1.1-3ubuntu5 Copyright (c) 2000-2023 the FFmpeg developers\n",
      "  built with gcc 13 (Ubuntu 13.2.0-23ubuntu3)\n",
      "  configuration: --prefix=/usr --extra-version=3ubuntu5 --toolchain=hardened --libdir=/usr/lib/x86_64-linux-gnu --incdir=/usr/include/x86_64-linux-gnu --arch=amd64 --enable-gpl --disable-stripping --disable-omx --enable-gnutls --enable-libaom --enable-libass --enable-libbs2b --enable-libcaca --enable-libcdio --enable-libcodec2 --enable-libdav1d --enable-libflite --enable-libfontconfig --enable-libfreetype --enable-libfribidi --enable-libglslang --enable-libgme --enable-libgsm --enable-libharfbuzz --enable-libmp3lame --enable-libmysofa --enable-libopenjpeg --enable-libopenmpt --enable-libopus --enable-librubberband --enable-libshine --enable-libsnappy --enable-libsoxr --enable-libspeex --enable-libtheora --enable-libtwolame --enable-libvidstab --enable-libvorbis --enable-libvpx --enable-libwebp --enable-libx265 --enable-libxml2 --enable-libxvid --enable-libzimg --enable-openal --enable-opencl --enable-opengl --disable-sndio --enable-libvpl --disable-libmfx --enable-libdc1394 --enable-libdrm --enable-libiec61883 --enable-chromaprint --enable-frei0r --enable-ladspa --enable-libbluray --enable-libjack --enable-libpulse --enable-librabbitmq --enable-librist --enable-libsrt --enable-libssh --enable-libsvtav1 --enable-libx264 --enable-libzmq --enable-libzvbi --enable-lv2 --enable-sdl2 --enable-libplacebo --enable-librav1e --enable-pocketsphinx --enable-librsvg --enable-libjxl --enable-shared\n",
      "  libavutil      58. 29.100 / 58. 29.100\n",
      "  libavcodec     60. 31.102 / 60. 31.102\n",
      "  libavformat    60. 16.100 / 60. 16.100\n",
      "  libavdevice    60.  3.100 / 60.  3.100\n",
      "  libavfilter     9. 12.100 /  9. 12.100\n",
      "  libswscale      7.  5.100 /  7.  5.100\n",
      "  libswresample   4. 12.100 /  4. 12.100\n",
      "  libpostproc    57.  3.100 / 57.  3.100\n",
      "[aist#0:0/pcm_s16le @ 0x55e655abf500] Guessed Channel Layout: stereo\n",
      "Input #0, wav, from 'output/temp_input1.wav':\n",
      "  Metadata:\n",
      "    encoder         : Lavf60.16.100\n",
      "  Duration: 00:00:23.22, bitrate: 1536 kb/s\n",
      "  Stream #0:0: Audio: pcm_s16le ([1][0][0][0] / 0x0001), 48000 Hz, 2 channels, s16, 1536 kb/s\n",
      "Stream mapping:\n",
      "  Stream #0:0 -> #0:0 (pcm_s16le (native) -> pcm_s16le (native))\n",
      "Press [q] to stop, [?] for help\n",
      "Output #0, wav, to 'output/input1.wav':\n",
      "  Metadata:\n",
      "    ISFT            : Lavf60.16.100\n",
      "  Stream #0:0: Audio: pcm_s16le ([1][0][0][0] / 0x0001), 192000 Hz, stereo, s16, 6144 kb/s\n",
      "    Metadata:\n",
      "      encoder         : Lavc60.31.102 pcm_s16le\n",
      "[out#0/wav @ 0x55e655a98b40] video:0kB audio:17415kB subtitle:0kB other streams:0kB global headers:0kB muxing overhead: 0.000572%\n",
      "size=   17415kB time=00:00:20.40 bitrate=6993.3kbits/s speed=23.3x    \n",
      "ffmpeg version 6.1.1-3ubuntu5 Copyright (c) 2000-2023 the FFmpeg developers\n",
      "  built with gcc 13 (Ubuntu 13.2.0-23ubuntu3)\n",
      "  configuration: --prefix=/usr --extra-version=3ubuntu5 --toolchain=hardened --libdir=/usr/lib/x86_64-linux-gnu --incdir=/usr/include/x86_64-linux-gnu --arch=amd64 --enable-gpl --disable-stripping --disable-omx --enable-gnutls --enable-libaom --enable-libass --enable-libbs2b --enable-libcaca --enable-libcdio --enable-libcodec2 --enable-libdav1d --enable-libflite --enable-libfontconfig --enable-libfreetype --enable-libfribidi --enable-libglslang --enable-libgme --enable-libgsm --enable-libharfbuzz --enable-libmp3lame --enable-libmysofa --enable-libopenjpeg --enable-libopenmpt --enable-libopus --enable-librubberband --enable-libshine --enable-libsnappy --enable-libsoxr --enable-libspeex --enable-libtheora --enable-libtwolame --enable-libvidstab --enable-libvorbis --enable-libvpx --enable-libwebp --enable-libx265 --enable-libxml2 --enable-libxvid --enable-libzimg --enable-openal --enable-opencl --enable-opengl --disable-sndio --enable-libvpl --disable-libmfx --enable-libdc1394 --enable-libdrm --enable-libiec61883 --enable-chromaprint --enable-frei0r --enable-ladspa --enable-libbluray --enable-libjack --enable-libpulse --enable-librabbitmq --enable-librist --enable-libsrt --enable-libssh --enable-libsvtav1 --enable-libx264 --enable-libzmq --enable-libzvbi --enable-lv2 --enable-sdl2 --enable-libplacebo --enable-librav1e --enable-pocketsphinx --enable-librsvg --enable-libjxl --enable-shared\n",
      "  libavutil      58. 29.100 / 58. 29.100\n",
      "  libavcodec     60. 31.102 / 60. 31.102\n",
      "  libavformat    60. 16.100 / 60. 16.100\n",
      "  libavdevice    60.  3.100 / 60.  3.100\n",
      "  libavfilter     9. 12.100 /  9. 12.100\n",
      "  libswscale      7.  5.100 /  7.  5.100\n",
      "  libswresample   4. 12.100 /  4. 12.100\n",
      "  libpostproc    57.  3.100 / 57.  3.100\n",
      "[aist#0:0/pcm_s16le @ 0x558dac2ca700] Guessed Channel Layout: stereo\n",
      "Input #0, wav, from 'deepfilternet_output/test2.wav':\n",
      "  Metadata:\n",
      "    encoder         : Lavf60.16.100\n",
      "  Duration: 00:00:27.79, bitrate: 1536 kb/s\n",
      "  Stream #0:0: Audio: pcm_s16le ([1][0][0][0] / 0x0001), 48000 Hz, 2 channels, s16, 1536 kb/s\n",
      "Stream mapping:\n",
      "  Stream #0:0 -> #0:0 (pcm_s16le (native) -> pcm_s16le (native))\n",
      "Press [q] to stop, [?] for help\n",
      "Output #0, wav, to 'output/temp_test2.wav':\n",
      "  Metadata:\n",
      "    ISFT            : Lavf60.16.100\n",
      "  Stream #0:0: Audio: pcm_s16le ([1][0][0][0] / 0x0001), 48000 Hz, stereo, s16, 1536 kb/s\n",
      "    Metadata:\n",
      "      encoder         : Lavc60.31.102 pcm_s16le\n",
      "size=       0kB time=00:00:00.00 bitrate=N/A speed=N/A    \r"
     ]
    },
    {
     "name": "stdout",
     "output_type": "stream",
     "text": [
      "Saved to: output/input1.wav\n",
      "Processing: test2.wav\n"
     ]
    },
    {
     "name": "stderr",
     "output_type": "stream",
     "text": [
      "[out#0/wav @ 0x558dac2a3c80] video:0kB audio:5211kB subtitle:0kB other streams:0kB global headers:0kB muxing overhead: 0.001462%\n",
      "size=    5212kB time=00:00:27.77 bitrate=1537.0kbits/s speed= 129x    \n",
      "ffmpeg version 6.1.1-3ubuntu5 Copyright (c) 2000-2023 the FFmpeg developers\n",
      "  built with gcc 13 (Ubuntu 13.2.0-23ubuntu3)\n",
      "  configuration: --prefix=/usr --extra-version=3ubuntu5 --toolchain=hardened --libdir=/usr/lib/x86_64-linux-gnu --incdir=/usr/include/x86_64-linux-gnu --arch=amd64 --enable-gpl --disable-stripping --disable-omx --enable-gnutls --enable-libaom --enable-libass --enable-libbs2b --enable-libcaca --enable-libcdio --enable-libcodec2 --enable-libdav1d --enable-libflite --enable-libfontconfig --enable-libfreetype --enable-libfribidi --enable-libglslang --enable-libgme --enable-libgsm --enable-libharfbuzz --enable-libmp3lame --enable-libmysofa --enable-libopenjpeg --enable-libopenmpt --enable-libopus --enable-librubberband --enable-libshine --enable-libsnappy --enable-libsoxr --enable-libspeex --enable-libtheora --enable-libtwolame --enable-libvidstab --enable-libvorbis --enable-libvpx --enable-libwebp --enable-libx265 --enable-libxml2 --enable-libxvid --enable-libzimg --enable-openal --enable-opencl --enable-opengl --disable-sndio --enable-libvpl --disable-libmfx --enable-libdc1394 --enable-libdrm --enable-libiec61883 --enable-chromaprint --enable-frei0r --enable-ladspa --enable-libbluray --enable-libjack --enable-libpulse --enable-librabbitmq --enable-librist --enable-libsrt --enable-libssh --enable-libsvtav1 --enable-libx264 --enable-libzmq --enable-libzvbi --enable-lv2 --enable-sdl2 --enable-libplacebo --enable-librav1e --enable-pocketsphinx --enable-librsvg --enable-libjxl --enable-shared\n",
      "  libavutil      58. 29.100 / 58. 29.100\n",
      "  libavcodec     60. 31.102 / 60. 31.102\n",
      "  libavformat    60. 16.100 / 60. 16.100\n",
      "  libavdevice    60.  3.100 / 60.  3.100\n",
      "  libavfilter     9. 12.100 /  9. 12.100\n",
      "  libswscale      7.  5.100 /  7.  5.100\n",
      "  libswresample   4. 12.100 /  4. 12.100\n",
      "  libpostproc    57.  3.100 / 57.  3.100\n",
      "[aist#0:0/pcm_s16le @ 0x5636f56ec500] Guessed Channel Layout: stereo\n",
      "Input #0, wav, from 'output/temp_test2.wav':\n",
      "  Metadata:\n",
      "    encoder         : Lavf60.16.100\n",
      "  Duration: 00:00:27.79, bitrate: 1536 kb/s\n",
      "  Stream #0:0: Audio: pcm_s16le ([1][0][0][0] / 0x0001), 48000 Hz, 2 channels, s16, 1536 kb/s\n",
      "Stream mapping:\n",
      "  Stream #0:0 -> #0:0 (pcm_s16le (native) -> pcm_s16le (native))\n",
      "Press [q] to stop, [?] for help\n",
      "Output #0, wav, to 'output/test2.wav':\n",
      "  Metadata:\n",
      "    ISFT            : Lavf60.16.100\n",
      "  Stream #0:0: Audio: pcm_s16le ([1][0][0][0] / 0x0001), 192000 Hz, stereo, s16, 6144 kb/s\n",
      "    Metadata:\n",
      "      encoder         : Lavc60.31.102 pcm_s16le\n",
      "[out#0/wav @ 0x5636f56c5b40] video:0kB audio:20846kB subtitle:0kB other streams:0kB global headers:0kB muxing overhead: 0.000478%\n",
      "size=   20846kB time=00:00:24.90 bitrate=6858.2kbits/s speed=22.9x    \n",
      "ffmpeg version 6.1.1-3ubuntu5 Copyright (c) 2000-2023 the FFmpeg developers\n",
      "  built with gcc 13 (Ubuntu 13.2.0-23ubuntu3)\n",
      "  configuration: --prefix=/usr --extra-version=3ubuntu5 --toolchain=hardened --libdir=/usr/lib/x86_64-linux-gnu --incdir=/usr/include/x86_64-linux-gnu --arch=amd64 --enable-gpl --disable-stripping --disable-omx --enable-gnutls --enable-libaom --enable-libass --enable-libbs2b --enable-libcaca --enable-libcdio --enable-libcodec2 --enable-libdav1d --enable-libflite --enable-libfontconfig --enable-libfreetype --enable-libfribidi --enable-libglslang --enable-libgme --enable-libgsm --enable-libharfbuzz --enable-libmp3lame --enable-libmysofa --enable-libopenjpeg --enable-libopenmpt --enable-libopus --enable-librubberband --enable-libshine --enable-libsnappy --enable-libsoxr --enable-libspeex --enable-libtheora --enable-libtwolame --enable-libvidstab --enable-libvorbis --enable-libvpx --enable-libwebp --enable-libx265 --enable-libxml2 --enable-libxvid --enable-libzimg --enable-openal --enable-opencl --enable-opengl --disable-sndio --enable-libvpl --disable-libmfx --enable-libdc1394 --enable-libdrm --enable-libiec61883 --enable-chromaprint --enable-frei0r --enable-ladspa --enable-libbluray --enable-libjack --enable-libpulse --enable-librabbitmq --enable-librist --enable-libsrt --enable-libssh --enable-libsvtav1 --enable-libx264 --enable-libzmq --enable-libzvbi --enable-lv2 --enable-sdl2 --enable-libplacebo --enable-librav1e --enable-pocketsphinx --enable-librsvg --enable-libjxl --enable-shared\n",
      "  libavutil      58. 29.100 / 58. 29.100\n",
      "  libavcodec     60. 31.102 / 60. 31.102\n",
      "  libavformat    60. 16.100 / 60. 16.100\n",
      "  libavdevice    60.  3.100 / 60.  3.100\n",
      "  libavfilter     9. 12.100 /  9. 12.100\n",
      "  libswscale      7.  5.100 /  7.  5.100\n",
      "  libswresample   4. 12.100 /  4. 12.100\n",
      "  libpostproc    57.  3.100 / 57.  3.100\n"
     ]
    },
    {
     "name": "stdout",
     "output_type": "stream",
     "text": [
      "Saved to: output/test2.wav\n",
      "Processing: audio1.wav\n"
     ]
    },
    {
     "name": "stderr",
     "output_type": "stream",
     "text": [
      "[aist#0:0/pcm_s16le @ 0x563ed04aa480] Guessed Channel Layout: stereo\n",
      "Input #0, wav, from 'deepfilternet_output/audio1.wav':\n",
      "  Metadata:\n",
      "    encoder         : Lavf60.16.100\n",
      "  Duration: 00:00:25.61, bitrate: 1536 kb/s\n",
      "  Stream #0:0: Audio: pcm_s16le ([1][0][0][0] / 0x0001), 48000 Hz, 2 channels, s16, 1536 kb/s\n",
      "Stream mapping:\n",
      "  Stream #0:0 -> #0:0 (pcm_s16le (native) -> pcm_s16le (native))\n",
      "Press [q] to stop, [?] for help\n",
      "Output #0, wav, to 'output/temp_audio1.wav':\n",
      "  Metadata:\n",
      "    ISFT            : Lavf60.16.100\n",
      "  Stream #0:0: Audio: pcm_s16le ([1][0][0][0] / 0x0001), 48000 Hz, stereo, s16, 1536 kb/s\n",
      "    Metadata:\n",
      "      encoder         : Lavc60.31.102 pcm_s16le\n",
      "[out#0/wav @ 0x563ed0483a80] video:0kB audio:4802kB subtitle:0kB other streams:0kB global headers:0kB muxing overhead: 0.001586%\n",
      "size=    4802kB time=00:00:25.60 bitrate=1536.7kbits/s speed= 109x    \n",
      "ffmpeg version 6.1.1-3ubuntu5 Copyright (c) 2000-2023 the FFmpeg developers\n",
      "  built with gcc 13 (Ubuntu 13.2.0-23ubuntu3)\n",
      "  configuration: --prefix=/usr --extra-version=3ubuntu5 --toolchain=hardened --libdir=/usr/lib/x86_64-linux-gnu --incdir=/usr/include/x86_64-linux-gnu --arch=amd64 --enable-gpl --disable-stripping --disable-omx --enable-gnutls --enable-libaom --enable-libass --enable-libbs2b --enable-libcaca --enable-libcdio --enable-libcodec2 --enable-libdav1d --enable-libflite --enable-libfontconfig --enable-libfreetype --enable-libfribidi --enable-libglslang --enable-libgme --enable-libgsm --enable-libharfbuzz --enable-libmp3lame --enable-libmysofa --enable-libopenjpeg --enable-libopenmpt --enable-libopus --enable-librubberband --enable-libshine --enable-libsnappy --enable-libsoxr --enable-libspeex --enable-libtheora --enable-libtwolame --enable-libvidstab --enable-libvorbis --enable-libvpx --enable-libwebp --enable-libx265 --enable-libxml2 --enable-libxvid --enable-libzimg --enable-openal --enable-opencl --enable-opengl --disable-sndio --enable-libvpl --disable-libmfx --enable-libdc1394 --enable-libdrm --enable-libiec61883 --enable-chromaprint --enable-frei0r --enable-ladspa --enable-libbluray --enable-libjack --enable-libpulse --enable-librabbitmq --enable-librist --enable-libsrt --enable-libssh --enable-libsvtav1 --enable-libx264 --enable-libzmq --enable-libzvbi --enable-lv2 --enable-sdl2 --enable-libplacebo --enable-librav1e --enable-pocketsphinx --enable-librsvg --enable-libjxl --enable-shared\n",
      "  libavutil      58. 29.100 / 58. 29.100\n",
      "  libavcodec     60. 31.102 / 60. 31.102\n",
      "  libavformat    60. 16.100 / 60. 16.100\n",
      "  libavdevice    60.  3.100 / 60.  3.100\n",
      "  libavfilter     9. 12.100 /  9. 12.100\n",
      "  libswscale      7.  5.100 /  7.  5.100\n",
      "  libswresample   4. 12.100 /  4. 12.100\n",
      "  libpostproc    57.  3.100 / 57.  3.100\n",
      "[aist#0:0/pcm_s16le @ 0x55bf5ef0e500] Guessed Channel Layout: stereo\n",
      "Input #0, wav, from 'output/temp_audio1.wav':\n",
      "  Metadata:\n",
      "    encoder         : Lavf60.16.100\n",
      "  Duration: 00:00:25.61, bitrate: 1536 kb/s\n",
      "  Stream #0:0: Audio: pcm_s16le ([1][0][0][0] / 0x0001), 48000 Hz, 2 channels, s16, 1536 kb/s\n",
      "Stream mapping:\n",
      "  Stream #0:0 -> #0:0 (pcm_s16le (native) -> pcm_s16le (native))\n",
      "Press [q] to stop, [?] for help\n",
      "Output #0, wav, to 'output/audio1.wav':\n",
      "  Metadata:\n",
      "    ISFT            : Lavf60.16.100\n",
      "  Stream #0:0: Audio: pcm_s16le ([1][0][0][0] / 0x0001), 192000 Hz, stereo, s16, 6144 kb/s\n",
      "    Metadata:\n",
      "      encoder         : Lavc60.31.102 pcm_s16le\n",
      "size=    8704kB time=00:00:11.80 bitrate=6042.6kbits/s speed=21.5x    \r"
     ]
    },
    {
     "name": "stdout",
     "output_type": "stream",
     "text": [
      "Saved to: output/audio1.wav\n",
      "✅ All files processed.\n"
     ]
    },
    {
     "name": "stderr",
     "output_type": "stream",
     "text": [
      "[out#0/wav @ 0x55bf5eee7b40] video:0kB audio:19209kB subtitle:0kB other streams:0kB global headers:0kB muxing overhead: 0.000519%\n",
      "size=   19209kB time=00:00:22.80 bitrate=6901.7kbits/s speed=21.8x    \n"
     ]
    }
   ],
   "source": [
    "import os\n",
    "import subprocess\n",
    "from pathlib import Path\n",
    "\n",
    "# ==== SETTINGS ====\n",
    "INPUT_DIR = \"deepfilternet_output/\"\n",
    "OUTPUT_DIR = \"output/\"\n",
    "APPLY_NORMALIZATION = True  # Set to False if you only want compression\n",
    "\n",
    "# ==== ENSURE OUTPUT DIRECTORY EXISTS ====\n",
    "Path(OUTPUT_DIR).mkdir(parents=True, exist_ok=True)\n",
    "\n",
    "# ==== COMPRESSION AND NORMALIZATION SETTINGS ====\n",
    "compress_filter = \"acompressor=threshold=-30dB:ratio=6:attack=10:release=1000\"\n",
    "normalize_filter = \"loudnorm=I=-16:TP=-1.5:LRA=11\"\n",
    "\n",
    "# ==== PROCESS EACH .WAV FILE ====\n",
    "for filename in os.listdir(INPUT_DIR):\n",
    "    if not filename.lower().endswith(\".wav\"):\n",
    "        continue\n",
    "\n",
    "    input_path = os.path.join(INPUT_DIR, filename)\n",
    "    temp_path = os.path.join(OUTPUT_DIR, f\"temp_{filename}\")\n",
    "    output_path = os.path.join(OUTPUT_DIR, filename)\n",
    "\n",
    "    print(f\"Processing: {filename}\")\n",
    "\n",
    "    # Step 1: Apply Dynamic Range Compression\n",
    "    subprocess.run([\n",
    "        \"ffmpeg\", \"-y\", \"-i\", input_path,\n",
    "        \"-af\", compress_filter,\n",
    "        temp_path\n",
    "    ], check=True)\n",
    "\n",
    "    # Step 2: Apply Loudness Normalization (Optional)\n",
    "    if APPLY_NORMALIZATION:\n",
    "        subprocess.run([\n",
    "            \"ffmpeg\", \"-y\", \"-i\", temp_path,\n",
    "            \"-af\", normalize_filter,\n",
    "            output_path\n",
    "        ], check=True)\n",
    "        os.remove(temp_path)  # Clean up intermediate file\n",
    "    else:\n",
    "        os.rename(temp_path, output_path)\n",
    "\n",
    "    print(f\"Saved to: {output_path}\")\n",
    "\n",
    "print(\"✅ All files processed.\")\n"
   ]
  },
  {
   "cell_type": "code",
   "execution_count": null,
   "metadata": {},
   "outputs": [],
   "source": []
  },
  {
   "cell_type": "code",
   "execution_count": null,
   "id": "170afaf3",
   "metadata": {},
   "outputs": [],
   "source": []
  },
  {
   "cell_type": "code",
   "execution_count": null,
   "id": "16e25bfb",
   "metadata": {},
   "outputs": [
    {
     "name": "stdout",
     "output_type": "stream",
     "text": [
      "🎙️ Transcribing audio...\n",
      "\n",
      "📝 Transcription saved to: fwr/filler_word_audio.txt\n",
      "\n",
      "📝 Full Transcription:\n",
      "Do you know the theories? This is, look, some things, everything you know can be accepted from somewhere, everywhere. But I think we are already, with Jason, lots of people are talking about it and they are going to die.\n",
      "\n",
      "🕒 Word timestamps saved to: fwr/filler_word_audio.json\n",
      "\n",
      "🔍 Timestamp preview:\n",
      "[{'word': 'Do', 'start': 0.0, 'end': 0.0}, {'word': 'you', 'start': 0.0, 'end': 0.0}, {'word': 'know', 'start': 0.0, 'end': 0.0}, {'word': 'the', 'start': 0.0, 'end': 0.0}, {'word': 'theories?', 'start': 0.0, 'end': 0.52}]\n",
      "\n",
      "🚫 Removing filler words with buffer and fades...\n",
      "\n",
      "✅ Cleaned audio saved to: fwr/filler_word_audio.wav\n"
     ]
    }
   ],
   "source": [
    "import whisper\n",
    "from pydub import AudioSegment\n",
    "import os\n",
    "import json\n",
    "\n",
    "# === Configuration ===\n",
    "model = whisper.load_model(\"medium.en\")  # or \"large-v3\" if available\n",
    "audio_path = \"data/filler_word_audio.wav\"\n",
    "output_audio_path = \"fwr/filler_word_audio.wav\"\n",
    "output_text_path = \"fwr/filler_word_audio.txt\"\n",
    "output_json_path = \"fwr/filler_word_audio.json\"\n",
    "\n",
    "filler_words = {\"um\", \"uh\", \"ah\", \"erm\"}\n",
    "buffer_sec = 0.15  # seconds before/after each filler word to remove\n",
    "fade_ms = 20       # fade duration in milliseconds\n",
    "\n",
    "# === Step 1: Transcribe audio ===\n",
    "print(\"🎙️ Transcribing audio...\")\n",
    "result = model.transcribe(audio_path, word_timestamps=True)\n",
    "\n",
    "# Save full transcription\n",
    "full_text = result[\"text\"].strip()\n",
    "os.makedirs(\"fwr\", exist_ok=True)\n",
    "with open(output_text_path, \"w\", encoding=\"utf-8\") as f:\n",
    "    f.write(full_text)\n",
    "print(f\"\\n📝 Transcription saved to: {output_text_path}\")\n",
    "print(f\"\\n📝 Full Transcription:\\n{full_text}\")\n",
    "\n",
    "# Save word-level timestamps\n",
    "words = []\n",
    "for segment in result[\"segments\"]:\n",
    "    for word_info in segment.get(\"words\", []):\n",
    "        word_entry = {\n",
    "            \"word\": word_info[\"word\"].strip(),\n",
    "            \"start\": round(word_info[\"start\"], 2),\n",
    "            \"end\": round(word_info[\"end\"], 2)\n",
    "        }\n",
    "        words.append(word_entry)\n",
    "\n",
    "with open(output_json_path, \"w\", encoding=\"utf-8\") as f:\n",
    "    json.dump(words, f, indent=2)\n",
    "print(f\"\\n🕒 Word timestamps saved to: {output_json_path}\")\n",
    "print(f\"\\n🔍 Timestamp preview:\\n{words[:5]}\")\n",
    "\n",
    "# === Step 2: Remove filler words ===\n",
    "print(\"\\n🚫 Removing filler words with buffer and fades...\")\n",
    "\n",
    "audio = AudioSegment.from_wav(audio_path)\n",
    "filler_intervals = []\n",
    "for word_info in words:\n",
    "    word = word_info[\"word\"].lower()\n",
    "    if word in filler_words:\n",
    "        start = max(0, word_info[\"start\"] - buffer_sec)\n",
    "        end = min(audio.duration_seconds, word_info[\"end\"] + buffer_sec)\n",
    "        filler_intervals.append((start, end))\n",
    "\n",
    "# Merge overlapping intervals\n",
    "def merge_intervals(intervals):\n",
    "    if not intervals:\n",
    "        return []\n",
    "    intervals.sort()\n",
    "    merged = [intervals[0]]\n",
    "    for current in intervals[1:]:\n",
    "        last = merged[-1]\n",
    "        if current[0] <= last[1]:\n",
    "            merged[-1] = (last[0], max(last[1], current[1]))\n",
    "        else:\n",
    "            merged.append(current)\n",
    "    return merged\n",
    "\n",
    "filler_intervals = merge_intervals(filler_intervals)\n",
    "\n",
    "# Build keep intervals\n",
    "keep_intervals = []\n",
    "prev_end = 0\n",
    "for start, end in filler_intervals:\n",
    "    if start > prev_end:\n",
    "        keep_intervals.append((prev_end, start))\n",
    "    prev_end = end\n",
    "if prev_end < audio.duration_seconds:\n",
    "    keep_intervals.append((prev_end, audio.duration_seconds))\n",
    "\n",
    "# Stitch audio\n",
    "clean_audio = AudioSegment.empty()\n",
    "for start, end in keep_intervals:\n",
    "    segment = audio[start * 1000 : end * 1000]\n",
    "    segment = segment.fade_in(fade_ms).fade_out(fade_ms)\n",
    "    clean_audio += segment\n",
    "\n",
    "# Export final cleaned audio\n",
    "clean_audio.export(output_audio_path, format=\"wav\")\n",
    "print(f\"\\n✅ Cleaned audio saved to: {output_audio_path}\")\n"
   ]
  },
  {
   "cell_type": "code",
   "execution_count": null,
   "id": "f822b6fc",
   "metadata": {},
   "outputs": [
    {
     "name": "stdout",
     "output_type": "stream",
     "text": [
      "🎙️ Transcribing audio...\n",
      "📝 Transcription saved to: fwr/transcript.txt\n",
      "🕒 Word timestamps saved to: fwr/word_timestamps.json\n",
      "\n",
      "🔍 Keeping only non-filler word segments...\n",
      "\n",
      "✅ Cleaned audio saved to: fwr/cleaned_audio.wav\n"
     ]
    },
    {
     "ename": "",
     "evalue": "",
     "output_type": "error",
     "traceback": [
      "\u001b[1;31mThe Kernel crashed while executing code in the current cell or a previous cell. \n",
      "\u001b[1;31mPlease review the code in the cell(s) to identify a possible cause of the failure. \n",
      "\u001b[1;31mClick <a href='https://aka.ms/vscodeJupyterKernelCrash'>here</a> for more info. \n",
      "\u001b[1;31mView Jupyter <a href='command:jupyter.viewOutput'>log</a> for further details."
     ]
    }
   ],
   "source": [
    "import whisper\n",
    "from pydub import AudioSegment\n",
    "import os\n",
    "import json\n",
    "\n",
    "def generate_transcription_and_timestamps(model, audio_path):\n",
    "    \"\"\"\n",
    "    Transcribe audio using Whisper with word timestamps.\n",
    "    Returns (full_text, words) where words is a list of dicts with 'word', 'start', 'end'.\n",
    "    \"\"\"\n",
    "    print(\"🎙️ Transcribing audio...\")\n",
    "    result = model.transcribe(audio_path, word_timestamps=True)\n",
    "    full_text = result[\"text\"].strip()\n",
    "\n",
    "    words = []\n",
    "    for segment in result[\"segments\"]:\n",
    "        for word_info in segment.get(\"words\", []):\n",
    "            words.append({\n",
    "                \"word\": word_info[\"word\"].strip(),\n",
    "                \"start\": round(word_info[\"start\"], 2),\n",
    "                \"end\": round(word_info[\"end\"], 2)\n",
    "            })\n",
    "\n",
    "    return full_text, words\n",
    "\n",
    "def save_transcript_text(text, path):\n",
    "    os.makedirs(os.path.dirname(path), exist_ok=True)\n",
    "    with open(path, \"w\", encoding=\"utf-8\") as f:\n",
    "        f.write(text)\n",
    "    print(f\"📝 Transcription saved to: {path}\")\n",
    "\n",
    "def save_word_timestamps(words, path):\n",
    "    os.makedirs(os.path.dirname(path), exist_ok=True)\n",
    "    with open(path, \"w\", encoding=\"utf-8\") as f:\n",
    "        json.dump(words, f, indent=2)\n",
    "    print(f\"🕒 Word timestamps saved to: {path}\")\n",
    "\n",
    "def remove_non_word_regions(audio_path, words, filler_words, buffer_sec=0.05, fade_ms=20):\n",
    "    \"\"\"\n",
    "    Keep only audio segments corresponding to non-filler words.\n",
    "    Remove all other parts of the audio.\n",
    "    \"\"\"\n",
    "    print(\"\\n🔍 Keeping only non-filler word segments...\")\n",
    "    audio = AudioSegment.from_wav(audio_path)\n",
    "\n",
    "    keep_intervals = []\n",
    "    for w in words:\n",
    "        word = w[\"word\"].strip().lower()\n",
    "        if word not in filler_words:\n",
    "            start = max(0, w[\"start\"] - buffer_sec)\n",
    "            end = min(audio.duration_seconds, w[\"end\"] + buffer_sec)\n",
    "            keep_intervals.append((start, end))\n",
    "\n",
    "    # Merge close intervals\n",
    "    def merge_intervals(intervals, gap_threshold=0.1):\n",
    "        if not intervals:\n",
    "            return []\n",
    "        intervals.sort()\n",
    "        merged = [intervals[0]]\n",
    "        for current in intervals[1:]:\n",
    "            last = merged[-1]\n",
    "            if current[0] <= last[1] + gap_threshold:\n",
    "                merged[-1] = (last[0], max(last[1], current[1]))\n",
    "            else:\n",
    "                merged.append(current)\n",
    "        return merged\n",
    "\n",
    "    merged_intervals = merge_intervals(keep_intervals)\n",
    "\n",
    "    # Build clean audio\n",
    "    clean_audio = AudioSegment.empty()\n",
    "    for start, end in merged_intervals:\n",
    "        segment = audio[start * 1000: end * 1000]\n",
    "        segment = segment.fade_in(fade_ms).fade_out(fade_ms)\n",
    "        clean_audio += segment\n",
    "\n",
    "    return clean_audio\n",
    "\n",
    "def main():\n",
    "    model_name = \"medium.en\"  \n",
    "    audio_path = \"data/filler_word_audio.wav\"\n",
    "    output_audio_path = \"fwr/cleaned_audio.wav\"\n",
    "    output_text_path = \"fwr/transcript.txt\"\n",
    "    output_json_path = \"fwr/word_timestamps.json\"\n",
    "    filler_words = {\"um\", \"uh\", \"ah\", \"erm\", \"mm\", \"hmm\"}\n",
    "    buffer_sec = 0.05  \n",
    "    fade_ms = 20\n",
    "\n",
    "    # Load Whisper model\n",
    "    model = whisper.load_model(model_name)\n",
    "\n",
    "    # Generate transcription & timestamps\n",
    "    full_text, words = generate_transcription_and_timestamps(model, audio_path)\n",
    "\n",
    "    # Save transcript and timestamps\n",
    "    save_transcript_text(full_text, output_text_path)\n",
    "    save_word_timestamps(words, output_json_path)\n",
    "\n",
    "    # Remove non-word regions and get cleaned audio\n",
    "    clean_audio = remove_non_word_regions(audio_path, words, filler_words, buffer_sec, fade_ms)\n",
    "\n",
    "    # Export cleaned audio\n",
    "    os.makedirs(os.path.dirname(output_audio_path), exist_ok=True)\n",
    "    clean_audio.export(output_audio_path, format=\"wav\")\n",
    "    print(f\"\\n✅ Cleaned audio saved to: {output_audio_path}\")\n",
    "\n",
    "if __name__ == \"__main__\":\n",
    "    main()\n"
   ]
  },
  {
   "cell_type": "code",
   "execution_count": null,
   "id": "ca29328e",
   "metadata": {},
   "outputs": [],
   "source": []
  }
 ],
 "metadata": {
  "kernelspec": {
   "display_name": "venv",
   "language": "python",
   "name": "python3"
  },
  "language_info": {
   "codemirror_mode": {
    "name": "ipython",
    "version": 3
   },
   "file_extension": ".py",
   "mimetype": "text/x-python",
   "name": "python",
   "nbconvert_exporter": "python",
   "pygments_lexer": "ipython3",
   "version": "3.10.18"
  }
 },
 "nbformat": 4,
 "nbformat_minor": 5
}
